<svg width="192" height="60" viewBox="0 0 192 60" fill="none" xmlns="http://www.w3.org/2000/svg">
<g clip-path="url(#clip0_29_137)">
<path d="M49.3617 0H10.6383C4.76293 0 0 4.76293 0 10.6383V49.3617C0 55.2371 4.76293 60 10.6383 60H49.3617C55.2371 60 60 55.2371 60 49.3617V10.6383C60 4.76293 55.2371 0 49.3617 0Z" fill="white"/>
<path d="M30.5591 27.4298C29.7251 27.4298 28.9744 27.3047 28.3072 27.0545C27.64 26.7904 27.07 26.4151 26.5974 25.9285C26.1387 25.4419 25.7842 24.8513 25.534 24.1562C25.2838 23.4611 25.1587 22.6757 25.1587 21.8C25.1587 20.9243 25.2838 20.1389 25.534 19.4438C25.7842 18.7488 26.1387 18.158 26.5974 17.6715C27.07 17.185 27.64 16.8166 28.3072 16.5664C28.9744 16.3023 29.7251 16.1702 30.5591 16.1702C31.3932 16.1702 32.1438 16.3023 32.811 16.5664C33.4783 16.8166 34.0412 17.185 34.5 17.6715C34.9725 18.158 35.334 18.7488 35.5842 19.4438C35.8344 20.1389 35.9595 20.9243 35.9595 21.8C35.9595 22.6757 35.8344 23.4611 35.5842 24.1562C35.334 24.8513 34.9725 25.4419 34.5 25.9285C34.0412 26.4151 33.4783 26.7904 32.811 27.0545C32.1438 27.3047 31.3932 27.4298 30.5591 27.4298ZM30.5591 25.1362C31.2542 25.1362 31.7964 24.9206 32.1855 24.4898C32.5746 24.0589 32.7693 23.4472 32.7693 22.6549V20.9451C32.7693 20.1528 32.5746 19.5411 32.1855 19.1102C31.7964 18.6793 31.2542 18.4638 30.5591 18.4638C29.864 18.4638 29.3219 18.6793 28.9327 19.1102C28.5436 19.5411 28.3489 20.1528 28.3489 20.9451V22.6549C28.3489 23.4472 28.5436 24.0589 28.9327 24.4898C29.3219 24.9206 29.864 25.1362 30.5591 25.1362Z" fill="#11161A"/>
<path d="M18.5142 29.0885L18.7662 22.9481H18.4828L14.3891 34.2528L10.2955 22.9481H10.0121L10.264 29.0885V38.8817H6.17041V16.9021H11.744L14.4521 24.3021H14.704L17.4121 16.9021H22.6079V38.8817H18.5142V29.0885Z" fill="#11161A"/>
<path d="M22.564 43.8638V40.0536H37.6789V43.8638H22.564Z" fill="#11161A"/>
<path d="M38.1074 16.9021H45.1925C48.1525 16.9021 50.3464 17.8468 51.7738 19.7362C53.2015 21.6255 53.9151 24.344 53.9151 27.8919C53.9151 31.4398 53.2015 34.1583 51.7738 36.0477C50.3464 37.937 48.1525 38.8817 45.1925 38.8817H38.1074V16.9021ZM44.8776 35.166C46.2842 35.166 47.313 34.7147 47.9636 33.8119C48.6144 32.9092 48.9398 31.5972 48.9398 29.8757V25.8766C48.9398 24.1762 48.6144 22.8747 47.9636 21.9719C47.313 21.0692 46.2842 20.6179 44.8776 20.6179H42.7678V35.166H44.8776Z" fill="#11161A"/>
<path d="M30.5591 39.1319C29.7251 39.1319 28.9744 39.0068 28.3072 38.7566C27.64 38.4926 27.07 38.1172 26.5974 37.6306C26.1387 37.144 25.7842 36.5534 25.534 35.8583C25.2838 35.1632 25.1587 34.3779 25.1587 33.5021C25.1587 32.6264 25.2838 31.8411 25.534 31.146C25.7842 30.4509 26.1387 29.8602 26.5974 29.3736C27.07 28.887 27.64 28.5187 28.3072 28.2685C28.9744 28.0045 29.7251 27.8723 30.5591 27.8723C31.3932 27.8723 32.1438 28.0045 32.811 28.2685C33.4783 28.5187 34.0412 28.887 34.5 29.3736C34.9725 29.8602 35.334 30.4509 35.5842 31.146C35.8344 31.8411 35.9595 32.6264 35.9595 33.5021C35.9595 34.3779 35.8344 35.1632 35.5842 35.8583C35.334 36.5534 34.9725 37.144 34.5 37.6306C34.0412 38.1172 33.4783 38.4926 32.811 38.7566C32.1438 39.0068 31.3932 39.1319 30.5591 39.1319ZM30.5591 36.8383C31.2542 36.8383 31.7964 36.6228 32.1855 36.1919C32.5746 35.7611 32.7693 35.1494 32.7693 34.357V32.6472C32.7693 31.8549 32.5746 31.2432 32.1855 30.8123C31.7964 30.3815 31.2542 30.166 30.5591 30.166C29.864 30.166 29.3219 30.3815 28.9327 30.8123C28.5436 31.2432 28.3489 31.8549 28.3489 32.6472V34.357C28.3489 35.1494 28.5436 35.7611 28.9327 36.1919C29.3219 36.6228 29.864 36.8383 30.5591 36.8383Z" fill="#11161A"/>
</g>
<path d="M86.068 31.292L86.292 25.832H86.04L82.4 35.884L78.76 25.832H78.508L78.732 31.292V40H75.092V20.456H80.048L82.456 27.036H82.68L85.088 20.456H89.708V40H86.068V31.292ZM99.1891 40.336C96.5757 40.336 94.6437 39.4493 93.3931 37.676C92.1611 35.9027 91.5451 33.42 91.5451 30.228C91.5451 27.036 92.1611 24.5533 93.3931 22.78C94.6437 21.0067 96.5757 20.12 99.1891 20.12C101.802 20.12 103.725 21.0067 104.957 22.78C106.208 24.5533 106.833 27.036 106.833 30.228C106.833 33.42 106.208 35.9027 104.957 37.676C103.725 39.4493 101.802 40.336 99.1891 40.336ZM99.1891 36.948C100.384 36.948 101.205 36.5093 101.653 35.632C102.12 34.736 102.353 33.4947 102.353 31.908V28.52C102.353 26.952 102.12 25.7293 101.653 24.852C101.205 23.956 100.384 23.508 99.1891 23.508C97.9944 23.508 97.1637 23.956 96.6971 24.852C96.2491 25.7293 96.0251 26.952 96.0251 28.52V31.936C96.0251 33.504 96.2491 34.736 96.6971 35.632C97.1637 36.5093 97.9944 36.948 99.1891 36.948ZM115.978 40.336C113.365 40.336 111.433 39.4493 110.182 37.676C108.95 35.9027 108.334 33.42 108.334 30.228C108.334 27.036 108.95 24.5533 110.182 22.78C111.433 21.0067 113.365 20.12 115.978 20.12C118.591 20.12 120.514 21.0067 121.746 22.78C122.997 24.5533 123.622 27.036 123.622 30.228C123.622 33.42 122.997 35.9027 121.746 37.676C120.514 39.4493 118.591 40.336 115.978 40.336ZM115.978 36.948C117.173 36.948 117.994 36.5093 118.442 35.632C118.909 34.736 119.142 33.4947 119.142 31.908V28.52C119.142 26.952 118.909 25.7293 118.442 24.852C117.994 23.956 117.173 23.508 115.978 23.508C114.783 23.508 113.953 23.956 113.486 24.852C113.038 25.7293 112.814 26.952 112.814 28.52V31.936C112.814 33.504 113.038 34.736 113.486 35.632C113.953 36.5093 114.783 36.948 115.978 36.948ZM126.159 20.456H132.459C135.091 20.456 137.042 21.296 138.311 22.976C139.581 24.656 140.215 27.0733 140.215 30.228C140.215 33.3827 139.581 35.8 138.311 37.48C137.042 39.16 135.091 40 132.459 40H126.159V20.456ZM132.179 36.696C133.43 36.696 134.345 36.2947 134.923 35.492C135.502 34.6893 135.791 33.5227 135.791 31.992V28.436C135.791 26.924 135.502 25.7667 134.923 24.964C134.345 24.1613 133.43 23.76 132.179 23.76H130.303V36.696H132.179ZM151.656 23.9V40H147.456V23.9H141.828V20.456H157.284V23.9H151.656ZM170.125 40L168.893 35.296H163.545L162.341 40H158.085L163.377 20.456H169.313L174.605 40H170.125ZM166.345 24.516H166.121L164.217 31.908H168.249L166.345 24.516ZM176.89 20.456H183.75C185.673 20.456 187.138 20.9227 188.146 21.856C189.173 22.7893 189.686 24.0587 189.686 25.664C189.686 26.784 189.406 27.68 188.846 28.352C188.305 29.0053 187.521 29.4813 186.494 29.78V29.948C187.708 30.2467 188.641 30.7693 189.294 31.516C189.966 32.2627 190.302 33.2987 190.302 34.624C190.302 36.2667 189.78 37.5733 188.734 38.544C187.708 39.5147 186.261 40 184.394 40H176.89V20.456ZM183.106 37.06C184.114 37.06 184.852 36.892 185.318 36.556C185.785 36.22 186.018 35.604 186.018 34.708V33.896C186.018 33 185.785 32.384 185.318 32.048C184.852 31.712 184.114 31.544 183.106 31.544H180.978V37.06H183.106ZM182.574 28.744C183.564 28.744 184.282 28.5853 184.73 28.268C185.178 27.932 185.402 27.3347 185.402 26.476V25.636C185.402 24.7773 185.178 24.1893 184.73 23.872C184.282 23.5547 183.564 23.396 182.574 23.396H180.978V28.744H182.574Z" fill="#11161A"/>
<defs>
<clipPath id="clip0_29_137">
<rect width="60" height="60" fill="white"/>
</clipPath>
</defs>
</svg>
